<svg width="28" height="28" viewBox="0 0 28 28" fill="none" xmlns="http://www.w3.org/2000/svg">
<path d="M5.54167 28H22.4583C25.5138 28 28 25.5138 28 22.4583V5.54167C28 2.48617 25.5138 0 22.4583 0H5.54167C2.48617 0 0 2.48617 0 5.54167V22.4583C0 25.5138 2.48617 28 5.54167 28ZM1.75 5.54167C1.75 3.451 3.451 1.75 5.54167 1.75H22.4583C24.549 1.75 26.25 3.451 26.25 5.54167V22.4583C26.25 24.549 24.549 26.25 22.4583 26.25H5.54167C3.451 26.25 1.75 24.549 1.75 22.4583V5.54167Z" fill="white"/>
<path d="M14.0007 21.1517C17.944 21.1517 21.1524 17.9434 21.1524 14.0001C21.1524 10.0567 17.944 6.84839 14.0007 6.84839C10.0574 6.84839 6.84903 10.0567 6.84903 14.0001C6.84903 17.9434 10.0574 21.1517 14.0007 21.1517ZM14.0007 8.59839C16.9792 8.59839 19.4024 11.0216 19.4024 14.0001C19.4024 16.9786 16.9792 19.4017 14.0007 19.4017C11.0222 19.4017 8.59903 16.9786 8.59903 14.0001C8.59903 11.0216 11.0222 8.59839 14.0007 8.59839V8.59839Z" fill="white"/>
<path d="M21.888 4.79878C21.9352 4.78073 21.9889 4.77477 22.0393 4.77568C22.0038 4.76563 21.9757 4.76548 21.96 4.76663C21.9388 4.76819 21.9262 4.77295 21.9199 4.77576C21.9135 4.77861 21.9033 4.78418 21.8902 4.79664C21.8895 4.7973 21.8887 4.79801 21.888 4.79878ZM22.0288 5.27281C22.0247 5.27145 22.0172 5.26876 22.0069 5.26437C22.0493 5.25993 22.0924 5.24729 22.1325 5.22829C22.1065 5.24825 22.0827 5.2596 22.0665 5.26581C22.0517 5.27148 22.0407 5.27384 22.0349 5.27481C22.0332 5.27427 22.0311 5.27361 22.0288 5.27281ZM23.5332 5.00783C23.5332 5.87409 22.8923 6.51567 22.016 6.51567C21.1674 6.51567 20.5 5.90673 20.5 5.00783C20.5 4.14158 21.1409 3.5 22.0172 3.5C22.8623 3.5 23.5332 4.10772 23.5332 5.00783ZM21.25 5.009C21.25 5.28927 21.3782 5.57506 21.6752 5.70503C21.9199 5.81214 22.1676 5.76063 22.3291 5.6882C22.4913 5.61546 22.6872 5.46805 22.7743 5.2273C22.8213 5.09761 22.8326 4.94728 22.787 4.79505C22.7423 4.64631 22.6534 4.52879 22.5534 4.44052C22.469 4.36599 22.3759 4.33455 22.352 4.32651C22.3514 4.32628 22.3507 4.32607 22.3502 4.32588C22.3064 4.31101 22.2612 4.30011 22.2182 4.29241C22.134 4.27731 22.0246 4.26848 21.9079 4.28299C21.7955 4.29696 21.6305 4.33856 21.4868 4.46531C21.326 4.60718 21.25 4.80417 21.25 5.009Z" stroke="white"/>
</svg>
